<svg width="20" height="20" viewBox="0 0 24 24 " fill="none" xmlns="http://www.w3.org/2000/svg" class="stroke-[2]" stroke-width="2">
  <path d="
M21.5 13v4.2c0 1.68-1.26 3.255-2.94 3.57a4.83 4.83 90 01-.945.105h-10.5a3.78 3.78 90 01-3.78-3.57V6.825c0-1.68 1.365-3.255 3.045-3.57a5.46 5.46 90 01.84-.105h10.395a3.78 3.78 90 013.78 3.675zM12.984 6.008C8.411 6.818 5.443 10.887 8.967 12.959M14.952 12.062C19.648 14.156 15.988 17.817 11.168 18.122M12.003 15.379V14.783M12.005 12.453V11.716M11.959 9.322V8.793
    " stroke="currentColor" stroke-linecap="round"/>
</svg>