<svg width="20" height="20" viewBox="0 0 24 24 " fill="none" xmlns="http://www.w3.org/2000/svg" class="stroke-[2]" stroke-width="2">
  <path d="
    M21.5 13.44v4.2c0 1.68-1.26 3.255-2.94 3.57a4.83 4.83 90 01-.945.105h-10.5a3.78 3.78 90 01-3.78-3.57V6.825c0-1.68 1.365-3.255 3.045-3.57a5.46 5.46 90 01.84-.105h10.395a3.78 3.78 90 013.78 3.675zm-14.02 4.41a5.88 5.88 90 001.575-1.155c.525-.525.42-1.05-.105-1.575l-.525-.525a4.725 4.725 90 01-.84-.945c-.525-.84-.525-1.68.105-2.415a4.095 4.095 90 011.155-.945c.525-.315 1.05-.525 1.47-.945s.42-.735-.105-1.05c-.21-.105-.42-.21-.525-.42a1.05 1.05 90 01-.105-1.47 2.94 2.94 90 01.735-.63c1.05-.63 2.205-1.05 3.36-1.47q.105.315.21.63s0 .105 0 .105a1.47 1.47 90 00-.525.735q-.105.42.21.735a2.415 2.415 90 00.63.315 2.1 2.1 90 011.05.84c.525.21.21 1.155-.105 1.68a1.47 1.47 90 00-.21.735c0 .42.21.84.42 1.155.42.42.84.735 1.365 1.05.945.63 1.26 1.575.945 2.625-.21.63-.42 1.05-.735 1.575a17.745 17.745 90 01-1.68 2.31M12.705 9.135a1.05 1.05 90 00-.2919.3444 1.05 1.05 90 00.3675.3108 1.05 1.05 90 00.3119-.3391 1.05 1.05 90 00-.398-.316M12.4866 12.7187a1.05 1.05 90 00.0976.3749 1.05 1.05 90 00.44-.0326 1.05 1.05 90 00-.0808-.4389 1.05 1.05 90 00-.4242.0809M12.4152 16.5501a1.05 1.05 90 00.6542.2236 1.05 1.05 90 00.4526-.5723 1.05 1.05 90 00-.7245-.1806 1.05 1.05 90 00-.3917.5418
    " stroke="currentColor" stroke-linecap="square"/>
</svg>